<svg width="43" height="44" viewBox="0 0 43 44" fill="none" xmlns="http://www.w3.org/2000/svg">
<path d="M0.169922 21.716C0.169922 11.6717 0.169922 6.64959 3.29028 3.52922C3.29028 3.52922 3.29029 3.52922 3.29029 3.52922C6.41065 0.408859 11.4328 0.408859 21.4771 0.408859V0.408859C31.5214 0.408859 36.5435 0.408859 39.6639 3.52922C39.6639 3.52922 39.6639 3.52922 39.6639 3.52922C42.7843 6.64959 42.7843 11.6717 42.7843 21.716V21.716C42.7843 31.7603 42.7843 36.7825 39.6639 39.9028C39.6639 39.9028 39.6639 39.9028 39.6639 39.9028C36.5435 43.0232 31.5214 43.0232 21.4771 43.0232V43.0232C11.4328 43.0232 6.41065 43.0232 3.29029 39.9028C3.29029 39.9028 3.29028 39.9028 3.29028 39.9028C0.169922 36.7825 0.169922 31.7603 0.169922 21.716V21.716Z" fill="#F53FA1"/>
</svg>
